<svg width="122" height="122" viewBox="0 0 122 122" fill="none" xmlns="http://www.w3.org/2000/svg">
<circle cx="61" cy="61" r="60.5" fill="#D9D9D9" stroke="#D9D9D9"/>
<path d="M60.0002 78.7143C71.7954 78.7143 81.3574 69.1524 81.3574 57.3571C81.3574 45.5619 71.7954 36 60.0002 36C48.205 36 38.6431 45.5619 38.6431 57.3571C38.6431 69.1524 48.205 78.7143 60.0002 78.7143Z" fill="white"/>
<path d="M108 120.714C104.739 110.551 98.3338 101.684 89.7071 95.3942C81.0803 89.1038 70.6781 85.7144 60 85.7144C49.3219 85.7144 38.9197 89.1038 30.2929 95.3942C21.6662 101.684 15.2608 110.551 12 120.714H108Z" fill="white"/>
<circle cx="61" cy="61" r="60.5" stroke="#D9D9D9"/>
</svg>
